<svg width="296" height="49" viewBox="0 0 296 49" fill="none" xmlns="http://www.w3.org/2000/svg">
<path d="M23.6777 40L13.5879 25.5332L22.6758 11.6641H16.1016L8.13867 23.916V11.6641H2.46094V40H8.13867V27.5898L16.752 40H23.6777ZM32.0977 34.3398V11.6641H26.4023V40H43.4883V34.3398H32.0977ZM46.6875 40H52.3828V11.6641H46.6875V40ZM74.373 11.5938V27.4668L57.5859 11.1367H57.3047V40.0352H63V24.1621L79.8223 40.5273H80.0859V11.5938H74.373ZM85.0078 40H90.7031V11.6641H85.0078V40ZM116.842 40L106.752 25.5332L115.84 11.6641H109.266L101.303 23.916V11.6641H95.625V40H101.303V27.5898L109.916 40H116.842Z" fill="black"/>
<path d="M133.75 24.0391C134.436 24.0391 136.422 22.1758 136.422 19.1699C136.422 15.3555 133.223 11.6641 128.195 11.6641H120.461V40H131.166C137.002 40 140.008 35.5879 140.008 31.4043C140.008 26.8516 136.475 24.0391 133.75 24.0391ZM128.547 17.2012C129.865 17.2012 131.113 18.3262 131.113 19.9258C131.113 21.5781 129.795 22.7383 128.441 22.7383H126.139V17.2012H128.547ZM130.639 34.4453H126.139V27.7305H130.621C133.328 27.7305 134.453 29.3652 134.453 31C134.453 33.1797 132.484 34.4453 130.639 34.4453ZM160.293 17.2715V11.6641H143.207V40H160.293V34.3398H148.902V28.4863H158.676V22.8086H148.902V17.2715H160.293ZM186.168 40L178.117 28.7324C181.158 27.6602 183.355 24.4785 183.355 20.8398C183.355 15.7422 179.014 11.6641 173.723 11.6641H164.477L164.494 40H170.189V26.6055L179.207 40H186.168ZM170.172 17.3066H173.828C175.744 17.3066 177.484 18.8535 177.484 20.875C177.484 22.8965 175.762 24.4609 173.828 24.4434L170.172 24.4258V17.3066ZM197.365 40.5625C203.43 40.5625 207.648 37.2754 207.648 32.1074C207.648 27.748 204.695 25.3574 200.002 23.1426C196.75 21.6133 194.605 21.0332 194.605 19.3457C194.605 17.8867 196.188 16.6562 198.314 16.6562C199.896 16.6562 201.531 17.3418 202.375 19.0293L206.576 16.0938C205.293 12.666 202.094 11.0664 198.227 11.0664C193.023 11.0664 188.875 14.3008 188.875 19.2051C188.875 23.7227 192.373 25.4629 195.555 27.0449C198.525 28.5215 201.918 30.1562 201.918 32.2305C201.918 33.7422 200.125 34.832 197.453 34.832C195.01 34.832 193.199 33.918 191.951 31.9141L187.398 35.1133C189.297 38.6289 192.725 40.5625 197.365 40.5625ZM228.689 40H234.859L221.307 10.9609H221.131L207.596 40H213.748L215.559 36.0449H226.896L228.689 40ZM217.773 31.1934L221.236 23.6172L224.682 31.1934H217.773ZM265.146 10.9609L251.594 29.6816L238.023 10.9609H237.707V40H243.402V27.6602L251.576 39.5254H251.611L259.768 27.6602V40H265.463V10.9609H265.146ZM289.404 40H295.574L282.021 10.9609H281.846L268.311 40H274.463L276.273 36.0449H287.611L289.404 40ZM278.488 31.1934L281.951 23.6172L285.396 31.1934H278.488Z" fill="#009B92"/>
</svg>
