<svg width="63" height="63" viewBox="0 0 63 63" fill="none" xmlns="http://www.w3.org/2000/svg">
<path d="M32.9826 16.7959H30.0233C29.7526 16.7959 29.5312 17.0173 29.5312 17.288V34.2255C29.5312 34.3854 29.605 34.5331 29.7342 34.6254L39.904 42.0512C40.1255 42.2112 40.4331 42.1681 40.5931 41.9466L42.3526 39.5472C42.5188 39.3196 42.4695 39.012 42.248 38.8582L33.4748 32.5151V17.288C33.4748 17.0173 33.2533 16.7959 32.9826 16.7959ZM46.5055 21.4224L56.1523 23.7788C56.46 23.8526 56.7614 23.6188 56.7614 23.305L56.8106 13.369C56.8106 12.9568 56.3369 12.723 56.017 12.9814L46.3209 20.5549C46.2476 20.6116 46.1918 20.6879 46.1599 20.7748C46.128 20.8618 46.1214 20.9561 46.1406 21.0467C46.1599 21.1373 46.2044 21.2206 46.2689 21.2871C46.3335 21.3536 46.4155 21.4005 46.5055 21.4224ZM56.8229 39.9471L53.3346 38.7474C53.2129 38.7057 53.0798 38.7133 52.9637 38.7685C52.8476 38.8237 52.7577 38.9221 52.7132 39.0427C52.5963 39.3565 52.4732 39.6641 52.344 39.9717C51.2489 42.5619 49.6801 44.8936 47.6744 46.8931C45.691 48.8827 43.3405 50.4685 40.753 51.5628C38.0726 52.696 35.1914 53.2777 32.2812 53.2731C29.3404 53.2731 26.4919 52.7009 23.8095 51.5628C21.222 50.4685 18.8715 48.8827 16.8881 46.8931C14.8886 44.8936 13.3197 42.5619 12.2185 39.9717C11.0915 37.2898 10.514 34.409 10.5204 31.5C10.5204 28.5591 11.0926 25.7045 12.2308 23.022C13.3259 20.4319 14.8947 18.1002 16.9004 16.1006C18.8838 14.1111 21.2343 12.5253 23.8218 11.431C26.4919 10.2928 29.3466 9.72066 32.2874 9.72066C35.2282 9.72066 38.0768 10.2928 40.7592 11.431C43.3466 12.5253 45.6972 14.1111 47.6806 16.1006C48.3081 16.7343 48.8987 17.3926 49.4401 18.0879L53.1192 15.2086C48.2773 9.0193 40.7407 5.03873 32.2751 5.04488C17.5341 5.05104 5.69697 17.0235 5.84463 31.7707C5.99228 46.2594 17.774 57.955 32.2874 57.955C43.7 57.955 53.4207 50.7199 57.1244 40.587C57.2167 40.3286 57.0813 40.0394 56.8229 39.9471Z" fill="white"/>
</svg>
