<svg width="85" height="85" viewBox="0 0 85 85" fill="none" xmlns="http://www.w3.org/2000/svg">
<path fill-rule="evenodd" clip-rule="evenodd" d="M69.8362 63.75C61.1449 42.0452 51.0002 36.3247 51.0002 25.5V12.75H53.1252C53.6888 12.75 54.2293 12.5261 54.6278 12.1276C55.0263 11.7291 55.2502 11.1886 55.2502 10.625V6.375C55.2502 5.81141 55.0263 5.27091 54.6278 4.8724C54.2293 4.47388 53.6888 4.25 53.1252 4.25H31.8752C31.3116 4.25 30.7711 4.47388 30.3726 4.8724C29.9741 5.27091 29.7502 5.81141 29.7502 6.375V10.625C29.7502 11.1886 29.9741 11.7291 30.3726 12.1276C30.7711 12.5261 31.3116 12.75 31.8752 12.75H34.0002V25.5C34.0002 36.3247 23.8554 42.0452 15.1642 63.75C12.3974 70.6562 5.29144 80.75 42.5002 80.75C79.7089 80.75 72.6029 70.6562 69.8362 63.75ZM62.9639 71.1917C59.9804 72.0843 54.0432 73.1 42.5002 73.1C30.9572 73.1 25.0199 72.0843 22.0364 71.1917C20.9782 70.8773 20.5659 69.649 20.9399 68.5227C21.8749 65.6752 23.6387 60.7537 26.9367 55.2585C34.9947 41.8327 43.3544 57.3707 50.3117 57.3707C57.2689 57.3707 55.3607 50.7365 58.0637 55.2585C60.5511 59.4424 62.5625 63.8915 64.0604 68.5227C64.4344 69.649 64.0222 70.873 62.9639 71.1917Z" fill="white"/>
</svg>
