<svg width="16" height="16" viewBox="0 0 16 16" fill="none" xmlns="http://www.w3.org/2000/svg">
<path d="M8 16C10.1217 16 12.1566 15.1571 13.6569 13.6569C15.1571 12.1566 16 10.1217 16 8C16 5.87827 15.1571 3.84344 13.6569 2.34315C12.1566 0.842855 10.1217 0 8 0C5.87827 0 3.84344 0.842855 2.34315 2.34315C0.842855 3.84344 0 5.87827 0 8C0 10.1217 0.842855 12.1566 2.34315 13.6569C3.84344 15.1571 5.87827 16 8 16ZM8.5 4.5V7.52L10.625 9.22C10.7321 9.30046 10.8219 9.40161 10.8892 9.51745C10.9564 9.63329 10.9997 9.76147 11.0165 9.89436C11.0333 10.0273 11.0232 10.1622 10.9868 10.2911C10.9504 10.42 10.8885 10.5403 10.8047 10.6448C10.721 10.7494 10.6171 10.836 10.4992 10.8996C10.3813 10.9632 10.2518 11.0025 10.1185 11.0151C9.98513 11.0277 9.8506 11.0134 9.72289 10.973C9.59517 10.9326 9.47687 10.867 9.375 10.78L6.875 8.78C6.75806 8.68638 6.66365 8.56768 6.59875 8.43267C6.53384 8.29766 6.50009 8.1498 6.5 8V4.5C6.5 4.23478 6.60536 3.98043 6.79289 3.79289C6.98043 3.60536 7.23478 3.5 7.5 3.5C7.76522 3.5 8.01957 3.60536 8.20711 3.79289C8.39464 3.98043 8.5 4.23478 8.5 4.5Z" fill="black"/>
</svg>
