<svg width="85" height="85" viewBox="0 0 85 85" fill="none" xmlns="http://www.w3.org/2000/svg">
<path fill-rule="evenodd" clip-rule="evenodd" d="M37.1873 17.7083C36.248 17.7083 35.3472 18.0815 34.683 18.7457C34.0188 19.4099 33.6457 20.3107 33.6457 21.25H28.3332C27.3939 21.25 26.493 21.6231 25.8288 22.2873C25.1646 22.9515 24.7915 23.8524 24.7915 24.7917V63.75C24.7915 64.6893 25.1646 65.5901 25.8288 66.2543C26.493 66.9185 27.3939 67.2917 28.3332 67.2917H56.6665C57.6058 67.2917 58.5067 66.9185 59.1708 66.2543C59.835 65.5901 60.2082 64.6893 60.2082 63.75V24.7917C60.2082 23.8524 59.835 22.9515 59.1708 22.2873C58.5067 21.6231 57.6058 21.25 56.6665 21.25H51.354C51.354 20.3107 50.9809 19.4099 50.3167 18.7457C49.6525 18.0815 48.7516 17.7083 47.8123 17.7083H37.1873ZM37.1873 21.25H47.8123V24.7917H37.1873V21.25ZM43.4862 49.5833L39.0715 61.3576C38.9826 61.5768 38.9385 61.8115 38.9419 62.048C38.9452 62.2845 38.9958 62.5179 39.0908 62.7345C39.1858 62.951 39.3233 63.1464 39.495 63.309C39.6667 63.4716 39.8693 63.5982 40.0907 63.6812C40.3122 63.7642 40.548 63.8021 40.7843 63.7925C41.0206 63.7829 41.2526 63.7261 41.4666 63.6254C41.6806 63.5247 41.8722 63.3821 42.0302 63.2061C42.1882 63.0301 42.3094 62.8243 42.3865 62.6007L44.616 56.6596H49.2379L51.4673 62.6007C51.5445 62.8243 51.6656 63.0301 51.8236 63.2061C51.9816 63.3821 52.1733 63.5247 52.3872 63.6254C52.6012 63.7261 52.8332 63.7829 53.0695 63.7925C53.3058 63.8021 53.5417 63.7642 53.7631 63.6812C53.9845 63.5982 54.1871 63.4716 54.3588 63.309C54.5306 63.1464 54.668 62.951 54.763 62.7345C54.858 62.5179 54.9087 62.2845 54.912 62.048C54.9153 61.8115 54.8712 61.5768 54.7823 61.3576L50.3694 49.5833H55.4305C55.9001 49.5833 56.3505 49.3968 56.6826 49.0647C57.0147 48.7326 57.2013 48.2822 57.2013 47.8125C57.2013 47.3428 57.0147 46.8924 56.6826 46.5603C56.3505 46.2282 55.9001 46.0417 55.4305 46.0417H37.1909C36.7212 46.0417 36.2708 46.2282 35.9387 46.5603C35.6066 46.8924 35.42 47.3428 35.42 47.8125C35.42 48.2822 35.6066 48.7326 35.9387 49.0647C36.2708 49.3968 36.7212 49.5833 37.1909 49.5833H43.488H43.4862ZM54.8957 34.0708H30.104V30.5292H54.8957V34.0708ZM30.104 41.4375H38.9582V37.8958H30.104V41.4375ZM50.4686 40.7292C50.4686 41.6685 50.0954 42.5693 49.4313 43.2335C48.7671 43.8977 47.8662 44.2708 46.9269 44.2708C45.9876 44.2708 45.0868 43.8977 44.4226 43.2335C43.7584 42.5693 43.3853 41.6685 43.3853 40.7292C43.3853 39.7899 43.7584 38.889 44.4226 38.2248C45.0868 37.5606 45.9876 37.1875 46.9269 37.1875C47.8662 37.1875 48.7671 37.5606 49.4313 38.2248C50.0954 38.889 50.4686 39.7899 50.4686 40.7292Z" fill="white"/>
<path fill-rule="evenodd" clip-rule="evenodd" d="M69.0625 14.1667H15.9375C15.4678 14.1667 15.0174 14.3532 14.6853 14.6853C14.3532 15.0174 14.1667 15.4678 14.1667 15.9375V69.0625C14.1667 69.5322 14.3532 69.9826 14.6853 70.3147C15.0174 70.6468 15.4678 70.8333 15.9375 70.8333H69.0625C69.5322 70.8333 69.9826 70.6468 70.3147 70.3147C70.6468 69.9826 70.8333 69.5322 70.8333 69.0625V15.9375C70.8333 15.4678 70.6468 15.0174 70.3147 14.6853C69.9826 14.3532 69.5322 14.1667 69.0625 14.1667ZM15.9375 10.625C14.5285 10.625 13.1773 11.1847 12.181 12.181C11.1847 13.1773 10.625 14.5285 10.625 15.9375V69.0625C10.625 70.4715 11.1847 71.8227 12.181 72.819C13.1773 73.8153 14.5285 74.375 15.9375 74.375H69.0625C70.4715 74.375 71.8227 73.8153 72.819 72.819C73.8153 71.8227 74.375 70.4715 74.375 69.0625V15.9375C74.375 14.5285 73.8153 13.1773 72.819 12.181C71.8227 11.1847 70.4715 10.625 69.0625 10.625H15.9375Z" fill="white"/>
</svg>
