<svg width="85" height="85" viewBox="0 0 85 85" fill="none" xmlns="http://www.w3.org/2000/svg">
<path fill-rule="evenodd" clip-rule="evenodd" d="M46.9837 11.112C45.3014 10.6392 43.0648 10.625 40.8318 10.625C38.0251 10.625 36.2808 11.351 35.1474 12.325C33.9946 13.3131 33.2739 14.7298 32.856 16.4687C32.4363 18.2201 32.3531 20.1751 32.3885 22.0911C32.3956 22.4046 32.4044 22.7145 32.4151 23.0208H65.5208C66.4983 23.0208 67.3022 23.8177 67.1907 24.7881C66.0538 34.719 55.4323 42.5 42.4999 42.5C29.5658 42.5 18.9461 34.719 17.8092 24.7881C17.6977 23.8177 18.4998 23.0208 19.4791 23.0208H28.8716C28.861 22.7375 28.8539 22.4506 28.8486 22.1584C28.8096 20.1344 28.8893 17.827 29.4117 15.6453C29.9377 13.453 30.9399 11.2678 32.8401 9.63687C34.7561 7.98999 37.3876 7.08333 40.8318 7.08333H40.9593C43.0347 7.08333 45.7406 7.08333 47.9435 7.70312C49.0892 8.02541 50.2668 8.55843 51.1664 9.49166C52.1138 10.4692 52.6238 11.753 52.6238 13.2812C52.6238 13.7509 52.4372 14.2013 52.1051 14.5334C51.773 14.8655 51.3226 15.0521 50.853 15.0521C50.3833 15.0521 49.9329 14.8655 49.6008 14.5334C49.2687 14.2013 49.0821 13.7509 49.0821 13.2812C49.0821 12.5959 48.8785 12.2187 48.6217 11.9531C48.3189 11.6397 47.8018 11.3422 46.9837 11.112ZM28.3333 74.375V77.9167H56.6666V74.375H28.3333Z" fill="white"/>
<path fill-rule="evenodd" clip-rule="evenodd" d="M53.1887 34.2833C55.6997 36.0117 56.6666 38.5227 56.6666 41.2657C56.6666 44.0017 55.7068 46.5481 53.2135 48.326C51.4639 49.5727 49.0874 50.3483 46.0416 50.6724V47.1077C48.4783 46.8067 50.1039 46.1922 51.1558 45.4431C52.5352 44.4585 53.1249 43.1003 53.1249 41.264C53.1249 39.4365 52.5405 38.1367 51.1805 37.1999C49.6824 36.1693 47.0191 35.4167 42.4999 35.4167V31.875C47.2794 31.875 50.8122 32.6471 53.1887 34.2833ZM38.9583 47.345V50.8902C37.2441 50.9557 35.7389 51.1169 34.5205 51.51C33.5661 51.8164 32.9427 52.2236 32.5496 52.7124C32.1724 53.1799 31.8749 53.8882 31.8749 55.0658C31.8749 56.2488 32.1724 56.9606 32.5514 57.4317C32.9445 57.9222 33.5696 58.3312 34.5223 58.6394C36.5056 59.2804 39.2558 59.3052 42.4185 59.3052L42.4521 59.3017C42.5318 59.2964 42.6416 59.2875 42.7762 59.284C43.0453 59.2716 43.419 59.2663 43.8652 59.2857C45.0045 59.332 46.1305 59.5469 47.2068 59.9232C48.4605 60.3766 49.8064 61.1593 50.8352 62.5016C51.8765 63.8598 52.4821 65.6501 52.4821 67.9168C52.4821 70.1817 51.8765 71.9596 50.8104 73.2877C49.7568 74.5999 48.3844 75.3153 47.12 75.6978C46.7651 75.8047 46.4045 75.8917 46.0398 75.9581V72.3244C46.0576 72.3192 46.0753 72.3138 46.0929 72.3084C46.881 72.0694 47.5627 71.678 48.0479 71.0724C48.5225 70.4809 48.9422 69.5265 48.9422 67.9168C48.9422 66.3089 48.5225 65.3066 48.0231 64.6549C47.5131 63.9891 46.8048 63.5446 46.0044 63.2559C45.2618 62.9998 44.4855 62.8542 43.7005 62.8239C43.3777 62.8088 43.0544 62.8118 42.7319 62.8327L42.6912 62.8363H42.6876L42.5991 62.8469H42.3104C39.3549 62.8469 36.024 62.8469 33.4333 62.0093C32.0626 61.5666 30.7504 60.8476 29.7871 59.647C28.8096 58.4286 28.3333 56.8863 28.3333 55.0658C28.3333 53.2472 28.8114 51.7083 29.7889 50.4918C30.7522 49.2965 32.0644 48.5793 33.435 48.1383C35.0748 47.6106 37.0086 47.4158 38.9583 47.345Z" fill="white"/>
<path fill-rule="evenodd" clip-rule="evenodd" d="M40.9329 63.75V75.2604H44.4745V63.75H40.9329ZM40.9329 56.6667H44.4745V35.677H40.9329V56.6667Z" fill="white"/>
</svg>
