<svg width="85" height="85" viewBox="0 0 85 85" fill="none" xmlns="http://www.w3.org/2000/svg">
<path fill-rule="evenodd" clip-rule="evenodd" d="M21.25 15.9375C21.25 14.5285 21.8097 13.1773 22.806 12.181C23.8023 11.1847 25.1535 10.625 26.5625 10.625H40.7292C42.1381 10.625 43.4894 11.1847 44.4857 12.181C45.482 13.1773 46.0417 14.5285 46.0417 15.9375H51.3542C52.7631 15.9375 54.1144 16.4972 55.1107 17.4935C56.107 18.4898 56.6667 19.841 56.6667 21.25V69.0625C56.6667 70.4715 56.107 71.8227 55.1107 72.819C54.1144 73.8153 52.7631 74.375 51.3542 74.375H15.9375C14.5285 74.375 13.1773 73.8153 12.181 72.819C11.1847 71.8227 10.625 70.4715 10.625 69.0625V21.25C10.625 19.841 11.1847 18.4898 12.181 17.4935C13.1773 16.4972 14.5285 15.9375 15.9375 15.9375H21.25ZM26.5625 14.1667C26.0928 14.1667 25.6424 14.3532 25.3103 14.6853C24.9782 15.0174 24.7917 15.4678 24.7917 15.9375V19.4792C24.7917 19.9488 24.9782 20.3992 25.3103 20.7313C25.6424 21.0634 26.0928 21.25 26.5625 21.25H40.7292C41.1988 21.25 41.6492 21.0634 41.9813 20.7313C42.3134 20.3992 42.5 19.9488 42.5 19.4792V15.9375C42.5 15.4678 42.3134 15.0174 41.9813 14.6853C41.6492 14.3532 41.1988 14.1667 40.7292 14.1667H26.5625ZM24.7917 31.875V37.1875H19.4792V40.7292H24.7917V46.0417H28.3333V40.7292H33.6458V37.1875H28.3333V31.875H24.7917ZM21.25 51.3542C20.7803 51.3542 20.3299 51.5407 19.9978 51.8728C19.6657 52.2049 19.4792 52.6553 19.4792 53.125C19.4792 53.5947 19.6657 54.0451 19.9978 54.3772C20.3299 54.7093 20.7803 54.8958 21.25 54.8958H46.0417C46.5113 54.8958 46.9617 54.7093 47.2938 54.3772C47.6259 54.0451 47.8125 53.5947 47.8125 53.125C47.8125 52.6553 47.6259 52.2049 47.2938 51.8728C46.9617 51.5407 46.5113 51.3542 46.0417 51.3542H21.25ZM19.4792 61.9792C19.4792 61.5095 19.6657 61.0591 19.9978 60.727C20.3299 60.3949 20.7803 60.2083 21.25 60.2083H46.0417C46.5113 60.2083 46.9617 60.3949 47.2938 60.727C47.6259 61.0591 47.8125 61.5095 47.8125 61.9792C47.8125 62.4488 47.6259 62.8992 47.2938 63.2313C46.9617 63.5634 46.5113 63.75 46.0417 63.75H21.25C20.7803 63.75 20.3299 63.5634 19.9978 63.2313C19.6657 62.8992 19.4792 62.4488 19.4792 61.9792Z" fill="white"/>
<path d="M63.75 31.875C63.75 30.466 64.3097 29.1148 65.306 28.1185C66.3023 27.1222 67.6535 26.5625 69.0625 26.5625C70.4715 26.5625 71.8227 27.1222 72.819 28.1185C73.8153 29.1148 74.375 30.466 74.375 31.875V37.1875H63.75V31.875Z" fill="white"/>
<path d="M63.75 67.2917V40.7292H74.375V67.2917L69.0625 74.375L63.75 67.2917Z" fill="white"/>
</svg>
