<svg width="63" height="63" viewBox="0 0 63 63" fill="none" xmlns="http://www.w3.org/2000/svg">
<path d="M49.2144 63C45.4037 63 42.1564 61.6567 39.4725 58.9702C36.7886 56.2837 35.4466 53.0332 35.4466 49.2188C35.4466 45.4043 36.7886 42.1538 39.4725 39.4673C42.1564 36.7808 45.4037 35.4375 49.2144 35.4375C53.0252 35.4375 56.2725 36.7808 58.9564 39.4673C61.6403 42.1538 62.9822 45.4043 62.9822 49.2188C62.9822 53.0332 61.6403 56.2837 58.9564 58.9702C56.2725 61.6567 53.0252 63 49.2144 63ZM57.0818 47.25H51.1813V41.3438C51.1813 40.8105 50.9866 40.3491 50.5974 39.9595C50.2081 39.5698 49.7471 39.375 49.2144 39.375C48.6818 39.375 48.2208 39.5698 47.8315 39.9595C47.4422 40.3491 47.2476 40.8105 47.2476 41.3438V49.2188C47.2476 49.7109 47.4013 50.1313 47.7086 50.48C48.0159 50.8286 48.3949 51.0439 48.8457 51.126C48.9276 51.167 49.0505 51.1875 49.2144 51.1875H57.0818C57.6144 51.1875 58.0754 50.9927 58.4647 50.603C58.854 50.2134 59.0486 49.752 59.0486 49.2188C59.0486 48.6855 58.854 48.2241 58.4647 47.8345C58.0754 47.4448 57.6144 47.25 57.0818 47.25ZM29.5461 51.1875H17.7452C17.2125 51.1875 16.7515 50.9927 16.3622 50.603C15.973 50.2134 15.7783 49.752 15.7783 49.2188C15.7783 48.6855 15.973 48.2241 16.3622 47.8345C16.7515 47.4448 17.2125 47.25 17.7452 47.25H29.5461C30.0788 47.25 30.5398 47.4448 30.9291 47.8345C31.3183 48.2241 31.513 48.6855 31.513 49.2188C31.513 49.752 31.3183 50.2134 30.9291 50.603C30.5398 50.9927 30.0788 51.1875 29.5461 51.1875ZM17.7452 39.375H29.5461C30.0788 39.375 30.5398 39.5698 30.9291 39.9595C31.3183 40.3491 31.513 40.8105 31.513 41.3438C31.513 41.877 31.3183 42.3384 30.9291 42.728C30.5398 43.1177 30.0788 43.3125 29.5461 43.3125H17.7452C17.2125 43.3125 16.7515 43.1177 16.3622 42.728C15.973 42.3384 15.7783 41.877 15.7783 41.3438C15.7783 40.8105 15.973 40.3491 16.3622 39.9595C16.7515 39.5698 17.2125 39.375 17.7452 39.375ZM37.4135 35.4375H17.7452C17.2125 35.4375 16.7515 35.2427 16.3622 34.853C15.973 34.4634 15.7783 34.002 15.7783 33.4688C15.7783 32.9355 15.973 32.4741 16.3622 32.0845C16.7515 31.6948 17.2125 31.5 17.7452 31.5H37.4135C37.9461 31.5 38.4071 31.6948 38.7964 32.0845C39.1857 32.4741 39.3803 32.9355 39.3803 33.4688C39.3803 34.002 39.1857 34.4634 38.7964 34.853C38.4071 35.2427 37.9461 35.4375 37.4135 35.4375ZM45.2808 27.5625H17.7452C17.2125 27.5625 16.7515 27.3677 16.3622 26.978C15.973 26.5884 15.7783 26.127 15.7783 25.5938C15.7783 25.0605 15.973 24.5991 16.3622 24.2095C16.7515 23.8198 17.2125 23.625 17.7452 23.625H45.2808C45.8135 23.625 46.2744 23.8198 46.6637 24.2095C47.053 24.5991 47.2476 25.0605 47.2476 25.5938C47.2476 26.127 47.053 26.5884 46.6637 26.978C46.2744 27.3677 45.8135 27.5625 45.2808 27.5625ZM45.2808 11.8125H17.7452C17.2125 11.8125 16.7515 11.6177 16.3622 11.228C15.973 10.8384 15.7783 10.377 15.7783 9.84375C15.7783 9.31055 15.973 8.84912 16.3622 8.45947C16.7515 8.06982 17.2125 7.875 17.7452 7.875H45.2808C45.8135 7.875 46.2744 8.06982 46.6637 8.45947C47.053 8.84912 47.2476 9.31055 47.2476 9.84375C47.2476 10.377 47.053 10.8384 46.6637 11.228C46.2744 11.6177 45.8135 11.8125 45.2808 11.8125ZM45.2808 19.6875H17.7452C17.2125 19.6875 16.7515 19.4927 16.3622 19.103C15.973 18.7134 15.7783 18.252 15.7783 17.7188C15.7783 17.1855 15.973 16.7241 16.3622 16.3345C16.7515 15.9448 17.2125 15.75 17.7452 15.75H45.2808C45.8135 15.75 46.2744 15.9448 46.6637 16.3345C47.053 16.7241 47.2476 17.1855 47.2476 17.7188C47.2476 18.252 47.053 18.7134 46.6637 19.103C46.2744 19.4927 45.8135 19.6875 45.2808 19.6875ZM51.1813 5.90625C51.1813 5.37305 50.9866 4.91162 50.5974 4.52197C50.2081 4.13232 49.7471 3.9375 49.2144 3.9375H9.87785C9.34517 3.9375 8.88419 4.13232 8.49492 4.52197C8.10565 4.91162 7.91102 5.37305 7.91102 5.90625V7.875C9.01736 7.875 9.94956 8.25439 10.7076 9.01318C11.4657 9.77197 11.8447 10.7051 11.8447 11.8125C11.8447 12.9199 11.4657 13.853 10.7076 14.6118C9.94956 15.3706 9.01736 15.75 7.91102 15.75V19.6875C9.01736 19.6875 9.94956 20.0669 10.7076 20.8257C11.4657 21.5845 11.8447 22.5176 11.8447 23.625C11.8447 24.7324 11.4657 25.6655 10.7076 26.4243C9.94956 27.1831 9.01736 27.5625 7.91102 27.5625V31.5C9.01736 31.5 9.94956 31.8794 10.7076 32.6382C11.4657 33.397 11.8447 34.3198 11.8447 35.4067C11.8447 36.4937 11.4657 37.4268 10.7076 38.2061C9.94956 38.9854 9.01736 39.375 7.91102 39.375V43.3125C9.01736 43.3125 9.94956 43.6919 10.7076 44.4507C11.4657 45.2095 11.8447 46.1323 11.8447 47.2192C11.8447 48.3062 11.4657 49.2393 10.7076 50.0186C9.94956 50.7979 9.01736 51.1875 7.91102 51.1875V53.1562C7.91102 53.6895 8.10565 54.1509 8.49492 54.5405C8.88419 54.9302 9.34517 55.125 9.87785 55.125H35.4466V59.0625H7.91102C6.84565 59.0625 5.9237 58.6729 5.14517 57.8936C4.36663 57.1143 3.97736 56.1914 3.97736 55.125V51.1875C2.91199 51.1875 1.99004 50.7979 1.21151 50.0186C0.43297 49.2393 0.0437012 48.3062 0.0437012 47.2192C0.0437012 46.1323 0.43297 45.2095 1.21151 44.4507C1.99004 43.6919 2.91199 43.3125 3.97736 43.3125V39.375C2.91199 39.375 1.99004 38.9854 1.21151 38.2061C0.43297 37.4268 0.0437012 36.4937 0.0437012 35.4067C0.0437012 34.3198 0.43297 33.397 1.21151 32.6382C1.99004 31.8794 2.91199 31.5 3.97736 31.5V27.5625C2.91199 27.5625 1.99004 27.1831 1.21151 26.4243C0.43297 25.6655 0.0437012 24.7324 0.0437012 23.625C0.0437012 22.5176 0.43297 21.5845 1.21151 20.8257C1.99004 20.0669 2.91199 19.6875 3.97736 19.6875V15.75C2.91199 15.75 1.99004 15.3706 1.21151 14.6118C0.43297 13.853 0.0437012 12.9199 0.0437012 11.8125C0.0437012 10.7051 0.43297 9.77197 1.21151 9.01318C1.99004 8.25439 2.91199 7.875 3.97736 7.875V3.9375C3.97736 2.83008 4.36663 1.89697 5.14517 1.13818C5.9237 0.379395 6.84565 0 7.91102 0H51.1813C52.2466 0 53.1686 0.379395 53.9471 1.13818C54.7257 1.89697 55.1149 2.83008 55.1149 3.9375V31.5H51.1813V5.90625Z" fill="white"/>
</svg>
